<svg version="1.1" id="Layer_1" xmlns="http://www.w3.org/2000/svg" xmlns:xlink="http://www.w3.org/1999/xlink" x="0px" y="0px"
	 width="100%" viewBox="0 0 528 704" enable-background="new 0 0 528 704" xml:space="preserve">
<path fill="#000000" opacity="1.000000" stroke="none" 
	d="
M479.740662,477.232422 
	C473.431091,472.098022 469.103668,472.380554 463.966003,478.112427 
	C462.301483,479.969452 460.792786,481.974426 459.304108,483.979492 
	C447.495331,499.883942 435.421753,503.211029 417.010529,495.606842 
	C398.692078,488.040924 384.305389,475.335175 371.316223,460.766418 
	C345.531647,431.846191 330.037415,397.723846 320.782440,360.507599 
	C314.027435,333.344269 311.870453,305.699524 313.002075,277.773773 
	C313.129730,274.623474 313.521942,271.483887 313.093750,268.190582 
	C312.145294,272.726807 311.139374,277.251892 310.258667,281.801239 
	C306.977814,298.748749 309.105469,315.587036 311.367065,332.416412 
	C315.664368,364.394318 324.059357,395.288055 336.213654,425.149597 
	C345.890625,448.924744 358.246216,471.102600 376.014069,489.923370 
	C381.291809,495.513855 387.168030,500.417267 393.457489,504.838287 
	C394.910919,505.859985 396.784546,506.475830 397.635620,509.016815 
	C392.077698,511.951843 386.195770,512.791321 380.053864,511.837799 
	C369.033020,510.126740 360.930420,503.535614 353.968811,495.430817 
	C342.390808,481.951538 335.040802,466.099945 329.195587,449.516174 
	C318.816254,420.068359 312.369507,389.726227 308.547333,358.758606 
	C306.752991,344.220795 304.926605,329.711121 304.576996,315.049957 
	C304.537903,313.410187 304.048859,311.781128 303.607361,309.208221 
	C301.366516,315.095276 301.014465,320.514069 300.553864,325.717163 
	C299.572510,336.803467 297.995331,347.843842 298.249023,359.056976 
	C298.751312,381.256256 303.386871,402.522888 311.134796,423.260040 
	C319.613953,445.954254 326.457520,469.059296 325.286194,493.686859 
	C324.841064,503.045502 323.119690,512.210632 318.197754,520.424255 
	C316.174530,523.800537 313.673523,526.899353 309.140717,526.245117 
	C304.759430,525.612976 303.691833,521.935364 302.577240,518.359070 
	C300.084412,510.360626 295.895386,508.054321 287.807281,510.492279 
	C283.036346,511.930359 278.441101,513.943054 273.693970,515.470947 
	C269.241180,516.904175 264.685242,517.383972 261.242584,513.332458 
	C257.888245,509.384918 258.112305,504.707886 259.535126,500.069092 
	C260.777069,496.019958 263.131927,492.573151 265.988098,489.484070 
	C269.268188,485.936462 272.588043,482.425018 275.923462,478.929230 
	C289.047607,465.174011 295.309418,449.462524 290.635437,430.221954 
	C287.220764,416.165497 284.401520,401.963501 279.668549,388.255585 
	C279.192932,386.878082 278.607666,385.538452 277.903503,383.749969 
	C275.621063,385.460175 276.314972,387.588684 276.350342,389.338531 
	C277.258850,434.281769 259.046783,471.022430 227.749191,501.998901 
	C218.349121,511.302551 207.673294,519.063049 195.122208,523.738281 
	C185.042099,527.492981 174.785248,529.013672 164.561172,524.193298 
	C160.835678,522.436890 157.387100,520.200439 155.409637,515.797913 
	C157.858856,515.368896 159.110321,517.005493 160.636002,517.711975 
	C167.652679,520.961243 175.714828,517.804260 178.403915,510.661957 
	C180.378342,505.417816 176.563171,500.167450 169.809555,499.323944 
	C164.005875,498.599121 158.170654,499.046631 152.375931,499.812927 
	C138.461700,501.652985 124.538391,502.895447 110.718582,499.256958 
	C104.912773,497.728424 99.227196,495.723358 94.266556,492.217102 
	C82.918808,484.196381 82.978905,469.782196 94.678902,462.334045 
	C103.307915,456.840851 112.865616,455.506927 123.881119,458.259277 
	C120.612221,460.101746 117.786232,459.662811 115.236977,460.231750 
	C106.776894,462.119812 100.048592,466.057556 97.024071,474.742950 
	C96.275085,476.893768 95.788094,479.062683 97.632927,480.780670 
	C99.524796,482.542480 101.397011,481.072113 103.141106,480.206543 
	C144.693604,459.584930 173.129379,427.321655 188.676758,383.667450 
	C189.303635,381.907318 190.574890,380.044983 189.002396,377.676086 
	C186.298233,378.848724 184.783554,381.255432 183.007706,383.334808 
	C177.124451,390.223694 170.357895,396.093964 162.731918,400.971680 
	C147.776489,410.537506 133.372055,405.393005 124.040169,392.374481 
	C114.752533,379.417725 111.429977,364.270172 108.715981,349.005432 
	C104.704178,326.441223 103.575943,303.666321 105.839767,280.865112 
	C110.541428,233.510193 119.510658,187.149979 138.626923,143.173294 
	C150.640137,115.537132 165.196716,89.429916 184.953125,66.612267 
	C200.710403,48.413395 218.908569,33.208054 242.600067,26.023643 
	C253.205780,22.807482 262.430054,27.632160 264.779663,37.597103 
	C265.523895,40.753483 264.644470,43.545479 263.547821,46.316914 
	C259.344696,56.938812 251.813828,64.732361 242.377380,70.856308 
	C241.683197,71.306808 240.936447,71.762375 240.149460,71.967690 
	C237.798492,72.581070 235.350891,72.816711 233.934097,70.337997 
	C232.597412,67.999474 234.014465,66.182877 235.739975,64.700508 
	C240.659790,60.473965 245.762787,56.468102 250.031693,51.514030 
	C252.590836,48.544136 254.274612,45.143951 255.654633,41.574856 
	C257.379272,37.114498 255.960815,35.332634 251.170837,35.760612 
	C241.408371,36.632870 232.857391,40.829765 225.023331,46.257690 
	C205.069489,60.082958 188.990845,77.759827 175.488998,97.814407 
	C158.164551,123.546837 145.894348,151.688370 136.401489,181.100021 
	C127.952393,207.277771 121.948929,234.052689 118.710907,261.344086 
	C115.017471,292.473877 112.978981,323.689819 120.289238,354.668243 
	C123.124664,366.683838 127.004242,378.344238 133.281555,389.077057 
	C138.994446,398.844818 145.319000,400.439117 154.680771,394.026703 
	C168.610275,384.485626 178.327225,370.806488 189.556625,358.550720 
	C199.747299,347.428650 201.377075,333.657288 204.681854,320.244873 
	C214.126862,281.912384 229.001892,245.994629 250.936508,213.003998 
	C255.808838,205.675827 262.911438,202.116516 269.914734,198.122086 
	C278.449799,193.253967 287.396545,189.151169 296.561096,185.564514 
	C297.633942,185.144653 298.702332,184.549072 300.795227,185.640091 
	C297.001160,194.291885 296.124634,203.402054 300.956757,212.184769 
	C265.241913,220.279434 243.128830,244.245865 225.294327,273.131073 
	C215.847076,288.432037 213.679337,305.666687 214.234924,324.607605 
	C220.232788,318.880859 223.626129,312.762207 227.817810,307.292511 
	C230.042679,304.389252 232.021133,301.297852 234.226486,298.378815 
	C239.277176,291.693634 242.432587,284.600647 244.181641,276.047760 
	C249.277100,251.131012 263.382019,232.193192 286.006104,219.941696 
	C289.681732,217.951279 292.605103,215.846527 297.702362,216.413406 
	C305.075226,217.233398 309.061432,220.494431 312.198456,226.629944 
	C318.395355,238.750031 320.257629,251.958527 322.072540,265.099487 
	C325.279114,288.316772 331.640900,310.624817 340.211182,332.344208 
	C350.146118,357.522034 363.668823,380.539856 382.252075,400.382172 
	C388.581573,407.140503 395.718384,412.898651 404.800262,415.533905 
	C415.569244,418.658691 420.035309,415.632263 421.125305,404.206818 
	C427.537964,406.767883 430.920288,411.394653 432.592773,417.665161 
	C434.199615,423.689545 432.313782,428.554352 427.688019,432.341675 
	C420.384918,438.321014 412.092102,438.221710 403.533875,435.752350 
	C393.927521,432.980560 385.467102,428.130646 377.947021,421.586334 
	C359.339294,405.393005 347.521332,384.753540 338.974365,361.987183 
	C328.969147,335.336487 323.239410,307.734039 320.629211,279.433441 
	C320.048950,273.142090 319.241394,266.871704 318.454010,259.836823 
	C318.011322,273.653076 318.583282,286.702820 319.508728,299.754974 
	C320.639008,315.696564 322.657806,331.513458 326.308655,347.072388 
	C333.126526,376.128418 342.983032,403.948853 360.887634,428.275299 
	C371.117950,442.174957 385.586578,448.514221 402.261017,450.695679 
	C420.390564,453.067444 438.865509,452.504913 456.750519,456.808533 
	C466.045288,459.045105 474.971130,462.264557 481.118225,470.401215 
	C484.017181,474.238525 485.226501,478.384338 485.022095,483.864197 
	C482.063171,481.959412 481.868591,479.056763 479.740662,477.232422 
M243.503342,306.231873 
	C241.313004,306.370972 240.592270,308.284851 239.569702,309.683807 
	C233.386368,318.142883 227.944305,327.253357 220.979630,334.999908 
	C214.433228,342.281250 213.535431,350.256409 214.454254,359.025574 
	C216.237091,376.040863 215.865189,393.004639 212.181595,409.682678 
	C206.636353,434.789551 194.369781,455.780884 172.756897,470.645844 
	C163.077423,477.303162 152.498337,482.019958 141.353745,485.638367 
	C150.896271,485.240265 160.333374,484.329712 169.642136,482.542877 
	C192.896332,478.079163 214.872253,470.071899 232.598328,454.026306 
	C259.045502,430.086426 270.489532,400.485016 261.105682,364.978302 
	C255.929062,345.390930 248.258148,326.499603 243.503342,306.231873 
M297.415985,404.954071 
	C296.635834,402.760803 295.916534,400.543610 295.066498,398.377777 
	C280.737366,361.870056 278.943390,324.618286 288.485077,286.715363 
	C291.974548,272.853851 295.797485,259.074097 299.118988,245.173553 
	C300.714478,238.496353 301.740417,231.602081 297.387329,224.685837 
	C295.935699,226.758926 294.787384,228.340500 293.698883,229.962219 
	C281.931091,247.494720 270.604065,265.346924 258.201508,282.417877 
	C253.173615,289.338318 252.733643,295.435883 255.045700,303.080505 
	C261.660828,324.952820 271.985687,345.423920 278.822784,367.200409 
	C286.747375,392.440765 294.140381,417.679169 294.542084,444.555359 
	C294.788452,461.038300 289.494110,474.443848 277.617218,485.566071 
	C274.456818,488.525635 271.641144,491.830475 269.228088,495.448883 
	C268.253387,496.910553 267.679535,498.496857 268.741150,500.108826 
	C269.946869,501.939667 271.909149,502.089966 273.660339,501.393341 
	C277.210846,499.980774 280.664825,498.314453 284.111176,496.654236 
	C288.491089,494.544312 293.311401,493.330566 297.608490,495.479889 
	C303.322266,498.337830 304.966614,495.130127 306.659668,490.975616 
	C312.244873,477.270142 312.519775,463.097168 310.094849,448.778137 
	C307.586334,433.965607 302.453735,419.876678 297.415985,404.954071 
M266.351715,248.098724 
	C264.002350,251.746231 261.311646,255.205734 259.939240,259.400024 
	C261.784607,257.265137 263.543396,255.078415 264.931793,252.677490 
	C266.292694,250.324127 268.583618,248.423096 269.114319,244.681793 
	C267.963257,246.066727 267.338531,246.818359 266.351715,248.098724 
z"/>
<path fill="#000000" opacity="1.000000" stroke="none" 
	d="
M296.066711,142.681366 
	C309.733887,143.744400 315.084259,152.843597 310.824921,165.418198 
	C308.450562,172.428070 304.419922,176.185516 297.549744,178.692566 
	C284.313171,183.522873 272.615448,191.256836 261.858459,200.365189 
	C260.620148,201.413712 259.663788,202.911270 257.107605,203.092484 
	C256.912903,188.919693 248.126617,177.477829 244.776367,164.248077 
	C242.540588,155.419235 245.112762,148.974976 251.130386,145.485870 
	C256.848450,142.170456 266.429993,143.302200 272.213715,148.228958 
	C274.075989,149.815292 275.463562,151.958847 277.438751,154.283539 
	C282.834442,148.277847 287.780670,143.006836 296.066711,142.681366 
z"/>
<path fill="#000000" opacity="1.000000" stroke="none" 
	d="
M198.158417,602.369690 
	C200.517044,597.116211 201.758163,591.722229 205.416565,587.180664 
	C208.323669,589.603333 206.423767,591.558044 205.723831,593.308777 
	C202.196289,602.132080 198.667328,610.943176 198.134888,620.589172 
	C198.034958,622.399353 198.120590,624.219666 198.969727,626.274963 
	C201.240952,620.356262 203.453384,614.414062 205.799957,608.525391 
	C208.144379,602.642151 210.662384,596.829773 214.383591,591.643372 
	C215.224854,590.470886 215.973572,588.668884 217.777176,589.372559 
	C219.756943,590.145142 219.415848,592.091431 218.982452,593.713135 
	C217.693909,598.534668 216.336594,603.338745 214.929779,608.127197 
	C214.502975,609.579895 214.157486,610.983948 214.672699,613.498169 
	C216.305267,610.933228 217.435135,608.997253 218.728561,607.177612 
	C219.740784,605.753540 220.588165,603.634888 222.905502,604.489014 
	C224.897781,605.223267 224.423645,607.161987 224.417206,608.818726 
	C224.406494,611.571960 223.872482,614.383789 224.799179,617.049622 
	C227.497284,617.363953 228.800278,615.705383 230.168777,614.342590 
	C234.529465,609.999939 239.165741,605.911926 242.767395,600.852539 
	C243.336334,600.053345 244.036514,599.068542 244.880753,598.789917 
	C250.036652,597.088440 254.453827,594.489746 257.399384,589.732422 
	C257.925018,588.883362 258.995972,588.474365 260.061798,588.957764 
	C261.382935,589.556885 261.517029,590.831848 261.198273,591.944336 
	C260.745270,593.525208 259.998016,595.028687 259.307312,596.533508 
	C255.417725,605.007385 251.282791,613.405884 251.307419,623.055908 
	C251.309860,624.012695 251.023849,625.081787 252.495636,626.153503 
	C257.524811,623.093811 261.135498,618.361694 264.556885,613.590393 
	C268.851044,607.601990 273.466766,601.921143 279.059479,597.147278 
	C281.943512,594.685547 284.844269,591.739868 289.623260,592.618530 
	C278.291382,601.379761 268.803284,611.374756 265.122345,625.603333 
	C278.762665,610.393188 292.973999,595.564575 300.602631,576.079102 
	C303.195953,569.455078 307.199249,563.778320 311.427856,558.201538 
	C312.655212,556.582886 314.255585,554.868286 316.440979,556.164246 
	C318.667786,557.484741 317.730255,559.693665 316.986084,561.546753 
	C314.537109,567.645142 310.747253,573.016113 306.615662,577.960449 
	C297.821289,588.484802 295.601685,601.246277 293.445129,614.035889 
	C291.694427,624.418640 292.258209,634.953369 292.349701,645.437805 
	C292.362366,646.891541 292.199066,648.456848 294.043274,649.881897 
	C296.746979,643.177307 299.294250,636.594360 302.046783,630.098389 
	C306.007965,620.749939 309.809662,611.311829 315.530853,602.828979 
	C315.716888,602.553162 315.862335,602.250061 316.047760,601.973816 
	C318.083496,598.941956 320.443085,596.088501 324.546570,597.606567 
	C327.101440,598.551819 327.421539,600.946228 326.458923,603.498535 
	C324.687866,608.194397 322.198608,609.595642 317.445740,608.406860 
	C317.222443,608.646973 316.849579,608.864441 316.804626,609.136169 
	C316.179016,612.916687 313.420471,617.588867 317.877533,620.032288 
	C321.874084,622.223328 324.717102,617.868225 327.604858,615.580444 
	C330.100708,613.603210 331.768433,610.860779 333.482086,608.183228 
	C334.401489,606.746704 334.901398,604.711121 337.048492,604.564453 
	C338.385986,605.212097 338.352539,606.293152 337.903259,607.179565 
	C334.703888,613.491150 330.908997,619.366150 324.421051,622.793152 
	C318.850067,625.735779 315.308197,623.888000 312.229736,616.357544 
	C306.920135,627.228271 303.074066,638.352051 298.543518,649.182556 
	C297.644135,651.332581 296.792267,653.505249 295.808960,655.616394 
	C295.159424,657.011047 294.207520,658.305176 292.435486,658.103821 
	C290.641205,657.900024 290.026184,656.407288 289.803162,654.887329 
	C288.078033,643.129761 288.317047,631.321533 289.189880,619.524963 
	C289.686462,612.813538 290.977020,606.193176 292.217041,599.507935 
	C285.211212,609.530884 277.156525,618.587402 269.110962,627.635620 
	C264.695740,632.601135 262.394958,631.937073 260.384674,625.492676 
	C258.576141,625.248413 258.048004,627.033630 256.879150,627.780701 
	C255.026733,628.964844 253.134674,630.310425 250.884399,629.324097 
	C248.452911,628.258423 247.778839,625.892456 247.805969,623.480286 
	C247.879852,616.912354 249.710358,610.688416 251.831406,604.540771 
	C252.028503,603.969543 252.311157,603.427917 252.052032,602.575012 
	C250.168533,605.032898 248.317703,607.516785 246.392029,609.941162 
	C244.605331,612.190613 242.883591,614.361328 239.326599,613.139282 
	C236.787445,612.266968 235.827225,615.215820 233.951675,616.092773 
	C233.207520,616.440613 232.586594,617.043396 231.882263,617.486755 
	C229.439209,619.024536 227.388275,622.193726 224.039062,620.703308 
	C220.379333,619.074707 220.872894,615.244629 220.568985,610.997986 
	C219.107971,613.529602 218.170761,615.409912 216.991821,617.123962 
	C215.824295,618.821350 214.884552,621.574280 212.281174,620.710632 
	C209.632324,619.831848 209.689743,617.207886 210.148666,614.749573 
	C210.693176,611.832642 211.124298,608.894653 211.289307,605.854553 
	C208.500458,610.977112 206.579330,616.435425 204.793915,621.961914 
	C203.822800,624.967896 202.664169,627.915222 201.530319,630.866028 
	C200.914368,632.469055 200.062866,634.013306 198.021637,633.850830 
	C195.856537,633.678406 195.006699,632.140259 194.578384,630.169067 
	C192.967957,622.757935 194.773880,615.620056 196.273209,608.466553 
	C196.681152,606.520386 197.423004,604.644165 198.158417,602.369690 
z"/>
<path fill="#000000" opacity="1.000000" stroke="none" 
	d="
M390.252930,614.378052 
	C387.603546,617.850647 384.929657,620.782898 381.258606,622.654541 
	C375.776367,625.449585 371.367310,623.853577 369.555908,617.920471 
	C367.463226,611.066040 370.337158,605.141418 374.183411,599.773743 
	C375.762115,597.570618 378.570679,596.430603 381.334259,597.793030 
	C383.975739,599.095154 383.778015,601.745850 382.803802,603.915955 
	C381.587067,606.626404 380.029907,609.411987 376.258179,608.987366 
	C375.488861,608.900757 374.855591,608.046753 373.941284,608.484985 
	C373.758606,608.757202 373.507660,609.009460 373.411255,609.311096 
	C372.237701,612.982422 370.505737,617.351013 374.223724,619.874023 
	C377.755249,622.270508 380.532104,618.432007 383.198608,616.332214 
	C388.032349,612.525879 390.319519,606.744507 394.099792,602.116821 
	C394.940094,601.088196 395.568115,599.573425 396.649384,599.107483 
	C401.835266,596.872803 406.773193,594.432190 410.090668,589.559204 
	C410.659302,588.723999 411.952484,588.581604 412.784790,589.375610 
	C413.908569,590.447754 413.635895,591.892639 413.103027,593.120850 
	C411.314453,597.243225 409.247223,601.251160 407.597565,605.425720 
	C405.040833,611.895752 402.898590,618.495300 403.541321,625.959656 
	C406.817993,625.847046 408.335907,623.574402 409.865143,621.893005 
	C415.018677,616.226746 419.871429,610.288513 424.011597,603.812988 
	C427.179718,598.857788 431.058990,594.521057 435.607391,590.818176 
	C437.342926,589.405212 439.223389,587.827271 442.866760,589.410095 
	C436.617401,595.361694 429.719238,600.166016 426.159760,608.695129 
	C432.613983,610.597717 440.201569,609.349121 443.622406,616.826477 
	C451.444824,610.730103 458.405701,604.833374 464.883514,598.102051 
	C464.203339,603.065369 460.702820,606.769043 460.610535,612.289246 
	C465.695251,608.479675 468.991241,603.883911 472.690613,599.686279 
	C473.900879,598.313049 474.953400,596.772522 476.298828,595.551819 
	C481.488800,590.842834 486.595490,591.887085 489.397919,598.312195 
	C491.931885,604.121765 493.283417,610.263184 493.610504,617.328003 
	C499.187805,613.298096 502.105713,607.075317 507.759308,604.183350 
	C509.786957,606.237061 508.547333,607.459656 507.479370,608.403931 
	C497.852478,616.916016 492.349518,627.282715 491.286621,640.330322 
	C490.793549,646.383118 487.831696,652.118225 485.201355,657.706665 
	C483.851074,660.575500 482.298859,663.330383 480.031036,665.617676 
	C478.215881,667.448486 476.112915,668.184143 473.677490,667.172058 
	C471.282898,666.176819 471.554413,663.904724 471.744812,661.986816 
	C472.553772,653.837891 476.484222,646.790894 480.081635,639.679626 
	C482.180878,635.529846 484.789062,631.635498 487.204681,627.648315 
	C491.039795,621.318054 490.255920,603.944702 485.988922,597.850708 
	C483.651062,594.511780 481.552887,595.748108 479.524231,597.939392 
	C474.660278,603.193359 469.998077,608.637756 465.043274,613.802734 
	C460.978424,618.040161 458.651581,617.557739 455.910706,611.895630 
	C450.838257,615.769531 445.635681,619.144043 444.228302,626.044189 
	C443.437347,629.921997 441.049530,632.954895 437.778931,635.227844 
	C436.485260,636.126892 435.064087,636.798401 433.678894,635.594360 
	C432.341003,634.431396 432.613525,632.889160 433.266876,631.450867 
	C434.865936,627.930786 437.193268,624.865906 439.589081,621.883484 
	C442.424530,618.353760 441.081421,616.188599 437.554871,614.511963 
	C433.408905,612.540833 428.651154,613.598999 424.415924,611.777344 
	C422.816681,611.089478 421.890289,613.055420 421.041565,614.225769 
	C417.803406,618.691284 414.192993,622.825256 410.225616,626.649841 
	C408.257050,628.547485 406.051361,630.419983 403.176086,629.259827 
	C399.993286,627.975525 399.925262,624.793579 400.058899,621.978149 
	C400.360016,615.635742 402.397644,609.635010 404.444153,603.003662 
	C399.643555,607.184875 397.886139,614.322754 390.252930,614.378052 
M488.398682,635.898987 
	C488.482666,635.259460 488.566681,634.619934 488.650665,633.980408 
	C482.629364,642.935425 477.166687,652.078918 476.066895,663.032166 
	C483.649323,655.749695 485.791779,646.078918 488.398682,635.898987 
z"/>
<path fill="#000000" opacity="1.000000" stroke="none" 
	d="
M127.593369,618.117310 
	C127.114967,615.978516 126.733711,614.212341 126.202820,611.752991 
	C121.179398,615.502991 116.111008,618.595886 114.615219,624.985168 
	C113.753372,628.666443 112.036461,631.838684 109.161591,634.308594 
	C107.642776,635.613525 105.839447,637.237122 103.866753,635.700195 
	C101.665810,633.985474 102.838997,631.710571 103.999748,629.860535 
	C105.679031,627.184021 107.538101,624.617310 109.380325,622.046692 
	C112.086220,618.270874 111.568375,616.270813 107.318375,614.442993 
	C105.137695,613.505188 102.835922,613.194641 100.481743,613.210327 
	C97.885994,613.227600 95.693268,612.359375 93.577545,610.783325 
	C88.563744,607.048340 83.270203,608.522888 80.700775,614.092041 
	C79.238297,617.261963 77.759628,620.438049 76.039581,623.470337 
	C75.050522,625.213928 73.565247,626.761414 71.167809,626.122498 
	C68.903099,625.519165 67.907646,623.658630 67.868584,621.600586 
	C67.722702,613.914673 70.360725,607.176453 75.884529,601.855530 
	C77.739487,600.068665 80.374664,599.757019 82.416374,602.372498 
	C85.940369,606.886780 91.099380,606.712036 95.063019,602.070801 
	C97.980415,598.654541 100.816704,595.148193 103.976410,591.967285 
	C106.014259,589.915771 108.475784,588.115417 113.100777,588.877930 
	C106.783943,595.364197 99.864037,600.154541 96.344688,608.758606 
	C102.664772,610.388550 109.921944,609.564819 113.776329,616.886536 
	C119.403000,611.520508 125.581390,607.661011 130.396683,602.163818 
	C130.613007,601.916870 130.726517,601.582458 130.927460,601.318909 
	C133.063019,598.517822 135.649460,596.185730 139.332855,597.880554 
	C141.872986,599.049377 141.803177,601.760925 140.698410,604.009216 
	C139.013458,607.438293 136.948532,610.577271 132.326294,608.232300 
	C131.997726,608.488159 131.603424,608.635132 131.510941,608.891113 
	C130.130920,612.709534 128.433502,617.332336 132.260437,619.883789 
	C135.849869,622.276917 139.012589,618.353882 141.627945,616.013977 
	C146.039902,612.066589 149.106842,607.375916 149.996185,601.144043 
	C150.855209,595.124695 152.816727,589.262634 154.342316,583.137207 
	C146.985870,580.361938 139.784515,581.011963 132.768204,581.713684 
	C127.799744,582.210693 122.323509,581.898865 118.232079,585.988647 
	C117.158524,587.061768 115.621490,586.907593 114.915466,585.357483 
	C114.082748,583.529175 115.430496,582.578064 116.833839,581.887573 
	C122.939491,578.883179 129.601776,578.203552 136.214661,577.809814 
	C141.330261,577.505188 146.528076,577.186462 151.632767,578.498169 
	C154.730316,579.294067 156.537582,577.874207 157.747665,574.914490 
	C160.080933,569.207397 162.857056,563.682251 166.635483,558.770081 
	C168.017822,556.973022 169.693192,554.674744 172.391098,555.833740 
	C175.451920,557.148743 174.601425,560.204285 173.982422,562.430603 
	C172.782883,566.744934 171.156067,570.962463 169.415817,575.097778 
	C167.923950,578.642822 168.007217,580.576355 172.630676,580.954468 
	C181.260010,581.660156 189.851471,582.935547 198.354050,580.137146 
	C199.152451,579.874329 199.996017,579.858948 200.914352,580.757690 
	C200.907776,584.548950 197.546204,584.668274 195.119949,585.132568 
	C187.192230,586.649536 179.195358,586.015320 171.322220,584.679321 
	C167.235764,583.985779 164.785995,584.810181 163.065994,588.794067 
	C159.122498,597.928040 152.992279,606.142029 151.068893,616.116150 
	C148.906540,627.329468 149.727539,638.668396 150.581009,649.947998 
	C150.726517,651.871094 150.789001,654.476868 153.182312,655.544617 
	C154.333817,656.058350 155.376755,656.431213 155.029221,657.967590 
	C154.780502,659.067017 153.969086,659.635315 152.955704,659.880066 
	C151.460419,660.241150 150.272446,659.588257 149.574966,658.342773 
	C147.580841,654.781799 147.309158,650.776978 146.616104,646.845947 
	C144.829208,636.710693 146.983566,626.664734 146.973129,616.139221 
	C142.886017,619.774109 139.535385,624.550842 133.575821,624.042114 
	C130.550827,623.783936 128.790939,621.266541 127.593369,618.117310 
M161.241638,576.220764 
	C160.865631,577.279175 160.011154,578.477356 161.610321,579.190125 
	C162.714401,579.682251 163.654114,578.929871 164.071213,578.034485 
	C166.562134,572.686768 169.535172,567.507568 170.693817,560.730835 
	C165.785126,565.243713 163.969513,570.622131 161.241638,576.220764 
M76.355858,614.891113 
	C77.249519,612.090759 79.765846,609.566589 78.042671,606.107300 
	C73.423698,609.769714 70.922913,616.431152 72.306458,621.110229 
	C74.829605,620.098328 74.954636,617.504456 76.355858,614.891113 
M156.916504,588.372253 
	C156.658783,590.343872 154.976044,592.055969 155.768265,595.218140 
	C157.481155,590.923889 160.219543,588.018616 160.129852,583.729797 
	C157.566254,584.335388 157.460480,586.088135 156.916504,588.372253 
z"/>
<path fill="#000000" opacity="1.000000" stroke="none" 
	d="
M65.043442,644.947693 
	C65.328392,647.233521 66.396797,648.741882 67.304337,650.330444 
	C68.015327,651.574951 68.373985,652.949646 66.809509,653.772400 
	C65.243355,654.596069 64.289459,653.479858 63.657784,652.236084 
	C60.969734,646.943298 60.425945,641.135498 59.617756,635.376587 
	C58.654007,628.509338 58.845039,621.572815 58.623005,613.362976 
	C53.168049,620.096069 49.178349,626.465454 42.512348,630.313354 
	C39.153019,632.252380 36.010136,633.914795 32.303440,631.797180 
	C28.727249,629.754272 27.480459,626.197510 27.759245,622.404968 
	C28.445833,613.064819 31.299215,604.464844 37.879852,597.498779 
	C39.827709,595.436890 42.151783,593.751709 45.226948,593.695374 
	C48.676373,593.632080 49.496372,595.816162 49.218784,598.640503 
	C48.958733,601.286438 48.255226,603.734192 44.823994,603.313049 
	C43.929916,600.770386 46.648670,599.697571 45.903934,597.486633 
	C43.039085,597.519592 41.211586,599.399841 39.758221,601.206848 
	C34.622833,607.591675 31.621412,614.949524 31.384918,623.189148 
	C31.212051,629.211975 34.050377,630.786682 39.158222,627.802551 
	C44.437588,624.718201 47.844147,619.696655 52.076565,615.510620 
	C60.632397,607.048645 60.847019,595.800476 63.542969,585.381470 
	C66.121811,575.415039 70.311401,566.285461 76.187103,557.886841 
	C77.317169,556.271545 78.409798,554.085205 80.829811,555.059937 
	C83.240044,556.030823 82.640831,558.591431 82.247406,560.346313 
	C80.201111,569.473999 76.631546,578.087402 72.801933,586.589417 
	C71.025177,590.533936 69.475471,594.628357 67.264412,598.320374 
	C61.214626,608.422241 61.750607,619.254456 62.976452,630.286377 
	C63.507626,635.066528 63.558086,639.901062 65.043442,644.947693 
M70.791725,582.256592 
	C72.076401,579.217224 73.464073,576.216248 74.616585,573.127563 
	C75.752419,570.083557 76.650078,566.950684 77.652252,563.856750 
	C72.136551,570.920837 68.640190,578.668152 68.110115,587.605774 
	C68.914162,586.048645 69.718216,584.491516 70.791725,582.256592 
z"/>
</svg>