<svg version="1.1" id="Layer_1" xmlns="http://www.w3.org/2000/svg" xmlns:xlink="http://www.w3.org/1999/xlink" x="0px" y="0px"
	 width="100%" viewBox="0 0 672 1024" enable-background="new 0 0 672 1024" xml:space="preserve">
<path fill="#000000" opacity="1.000000" stroke="none" 
	d="
M313.795044,232.782043 
	C321.770691,237.068268 323.656921,242.605774 320.162933,250.336716 
	C316.833099,257.704346 311.475311,263.274628 304.843201,267.715790 
	C304.022095,268.265625 303.103241,268.760559 302.158112,269.014862 
	C300.280548,269.520020 298.420013,269.432678 297.359711,267.471741 
	C296.369720,265.640839 297.423462,264.284424 298.751160,263.137756 
	C302.779205,259.658997 307.145966,256.482574 310.309937,252.165878 
	C312.589417,249.055908 316.607452,245.304993 313.879211,241.669754 
	C311.613586,238.650894 307.027802,241.290756 303.678680,242.389862 
	C290.753113,246.631912 281.056641,255.601440 271.762482,264.974152 
	C248.350922,288.583466 234.113464,317.571320 223.337845,348.520782 
	C214.707764,373.307922 209.169312,398.849243 206.622726,424.911285 
	C203.907684,452.697174 203.229614,480.495026 214.097198,507.123260 
	C215.476883,510.503876 216.980881,513.875610 218.828979,517.014954 
	C223.549789,525.034180 228.610809,526.013855 236.120987,520.578308 
	C243.322189,515.366394 249.420074,509.006226 255.070953,502.189880 
	C257.619995,499.115082 259.959717,495.826813 262.782013,493.025940 
	C271.339081,484.534058 272.017639,473.031708 274.684265,462.350586 
	C282.259521,432.007935 294.106110,403.596313 311.843048,377.725525 
	C313.920532,374.695312 316.768524,372.730194 319.733826,370.962646 
	C328.328522,365.839569 337.314514,361.459930 346.599701,357.716492 
	C347.322449,357.425171 348.164978,357.430969 349.858551,357.146118 
	C347.958313,364.462738 345.379150,371.430664 349.976685,377.731964 
	C308.899139,393.470154 283.875580,420.654846 282.333435,465.754089 
	C289.996216,456.608032 297.588104,447.356262 303.435913,436.935059 
	C305.059814,434.041077 304.808289,430.139526 305.666504,426.763641 
	C310.336609,408.393066 320.862915,394.430756 337.440674,385.168549 
	C340.078278,383.694855 342.253296,381.745361 345.976074,381.830841 
	C359.382568,382.138519 360.466339,392.961090 363.078613,401.755829 
	C367.148987,415.459473 367.554840,429.972290 371.283600,443.823334 
	C379.621185,474.794525 392.246613,503.498444 414.690094,527.091309 
	C419.592041,532.244324 425.292145,536.221191 432.256989,538.101807 
	C439.565247,540.075195 443.484802,537.262390 443.774841,529.168701 
	C448.722137,530.614441 451.203094,534.120911 452.743195,538.336548 
	C454.419769,542.925720 453.715393,547.268372 450.006714,550.724548 
	C445.366913,555.048401 439.799927,556.010254 433.724823,554.872009 
	C418.903320,552.094910 408.326843,542.892212 399.202423,531.719177 
	C384.850616,514.145020 377.454163,493.295624 371.901306,471.719116 
	C367.998444,456.554077 365.642029,441.089142 364.372559,425.446777 
	C364.372559,430.862762 364.168732,436.287689 364.406281,441.693237 
	C365.758331,472.461365 372.705688,501.798920 385.622345,529.898315 
	C397.054504,554.768311 415.736816,566.834778 443.031738,566.933777 
	C455.802246,566.980103 468.696014,568.001892 480.723358,573.198486 
	C487.253540,576.019897 492.491760,580.157288 493.983734,587.656616 
	C494.112701,588.304810 494.235352,588.975281 494.202881,589.627502 
	C494.180176,590.083801 493.888031,590.526733 493.706055,591.002380 
	C491.447174,590.865967 491.426300,588.746277 490.491425,587.525879 
	C486.936005,582.884766 482.829468,582.335327 478.618011,586.383911 
	C476.476746,588.442322 474.766296,590.959595 472.930664,593.323486 
	C465.191589,603.289734 457.330902,605.979492 445.319061,602.491211 
	C433.856384,599.162476 424.275970,592.583130 415.637207,584.581177 
	C387.447723,558.469788 371.896576,525.509277 363.748199,488.543671 
	C361.412384,477.947144 360.483673,467.182495 359.458130,456.417145 
	C358.443115,445.762543 358.887421,435.130890 359.822021,424.056122 
	C352.412781,442.527100 356.924011,484.886078 370.492401,525.709229 
	C381.495667,558.814819 395.920441,589.750916 426.363037,611.032471 
	C418.283630,614.928467 411.310089,614.745422 404.383575,611.355103 
	C397.313110,607.894348 392.037262,602.386169 387.541168,596.060486 
	C375.131256,578.600647 369.010345,558.511292 363.865387,538.129883 
	C357.417542,512.587524 353.964081,486.554443 352.569031,460.249115 
	C352.528259,459.480408 352.215179,458.726166 351.729187,456.738800 
	C345.782135,487.519592 347.213257,516.388245 358.267578,544.640686 
	C364.972534,561.777161 369.832092,579.428162 369.258728,598.077026 
	C369.027802,605.588745 367.755554,612.997192 363.974060,619.696228 
	C362.382324,622.516113 360.420013,625.276245 356.777740,625.061707 
	C353.216583,624.851868 352.108734,621.767151 350.993195,618.925232 
	C348.306824,612.081299 345.120758,610.631409 338.194336,613.102295 
	C334.745361,614.332642 331.389221,615.899780 327.861786,616.817688 
	C320.675751,618.687805 316.067902,614.557800 316.779114,607.167053 
	C317.110138,603.727051 318.596985,600.744995 320.805573,598.182617 
	C323.957886,594.525513 327.262421,590.999207 330.516724,587.430481 
	C339.877380,577.165466 344.948029,565.658264 341.816895,551.376343 
	C339.322418,539.998352 337.055634,528.577148 333.340363,517.512146 
	C332.934845,516.304443 332.320129,515.166992 331.253815,512.757019 
	C330.883545,524.563171 330.782684,535.051270 328.150543,545.206116 
	C320.137634,576.119812 303.397827,601.001831 276.422729,618.504761 
	C268.154541,623.869568 259.030640,626.834045 248.925003,625.283508 
	C243.543945,624.457886 239.098236,621.605408 236.474655,617.238708 
	C237.847229,615.715576 238.870392,617.231506 239.879547,617.740234 
	C242.938385,619.282410 246.015610,619.398560 248.984955,617.794006 
	C252.027161,616.150085 254.613632,613.795532 254.236618,610.017090 
	C253.873169,606.374512 250.952286,604.896362 247.718842,603.976440 
	C242.515381,602.496155 237.480820,604.285767 232.373322,604.658813 
	C220.248886,605.544434 208.082184,606.925415 196.327438,602.325989 
	C193.858582,601.359985 191.366486,600.303589 189.143768,598.883850 
	C178.254852,591.928955 178.902863,579.271851 190.548294,573.528503 
	C196.805801,570.442444 203.422775,568.834229 210.760544,571.437073 
	C209.079254,573.811768 207.057587,572.933533 205.390594,573.230774 
	C199.182526,574.337708 193.944183,576.812866 191.268402,582.980774 
	C190.403564,584.974365 189.339996,587.286255 191.271393,589.004395 
	C192.967621,590.513306 194.742432,588.725708 196.276413,587.948975 
	C223.212280,574.309448 243.445999,554.088806 256.253479,526.622375 
	C258.780029,521.204041 261.561218,515.872498 262.411499,509.248047 
	C260.024750,510.088959 258.947144,511.941895 257.541290,513.346741 
	C251.184937,519.699036 245.121811,526.431946 236.275574,529.510742 
	C228.163193,532.334106 221.148087,530.173584 215.166245,524.477234 
	C209.209686,518.804932 206.046494,511.451141 203.606934,503.750153 
	C196.344177,480.823730 195.208817,457.179077 197.098984,433.548279 
	C199.503372,403.488739 204.950439,373.865967 214.866394,345.246338 
	C225.031494,315.907532 238.687912,288.386749 259.023102,264.681732 
	C271.420471,250.229980 285.838165,238.258224 304.618591,232.676849 
	C307.601257,231.790421 310.481171,231.525269 313.795044,232.782043 
M283.248627,502.591492 
	C283.452972,509.260742 282.995270,515.888123 282.363708,522.531616 
	C280.606781,541.012329 274.184204,557.454712 261.535126,571.221863 
	C252.330490,581.240173 240.903351,587.831909 228.134964,592.326782 
	C245.988403,591.669861 262.938751,587.628845 278.976990,579.774719 
	C306.960144,566.070923 323.851318,538.018066 320.530640,509.007416 
	C318.309235,489.600433 308.523468,472.133514 304.865967,452.702759 
	C300.875854,457.194122 297.919464,462.197510 294.080170,466.392914 
	C284.818298,476.513855 279.466614,487.600494 283.248627,502.591492 
M342.697662,426.350616 
	C344.827393,417.465332 347.901672,408.821075 349.234131,399.725067 
	C349.763336,396.112518 349.183655,392.974731 347.151611,389.545807 
	C346.216949,390.568207 345.469666,391.203766 344.943695,391.987793 
	C334.559937,407.465851 324.208832,422.965790 313.829041,438.446472 
	C312.642700,440.215820 312.457886,441.930969 312.894470,444.084015 
	C314.524811,452.124023 317.269867,459.799866 320.366730,467.331635 
	C330.569855,492.146240 339.517914,517.326477 343.976074,543.909790 
	C347.202820,563.150269 346.399170,581.233459 329.873077,595.009705 
	C329.241608,595.536133 328.605042,596.168091 328.244812,596.887939 
	C327.008514,599.358459 322.663879,601.332275 325.271423,604.394653 
	C327.655731,607.194885 330.845947,604.323120 333.393768,603.057800 
	C338.589081,600.477783 343.711029,598.331848 349.571014,600.977234 
	C352.021759,602.083496 352.885223,599.998657 353.601196,598.401245 
	C355.856903,593.368286 357.286804,588.130005 357.747650,582.569824 
	C359.136627,565.811462 354.654297,550.031189 348.521851,534.947571 
	C334.134247,499.559235 331.179993,463.826538 342.697662,426.350616 
z"/>
<path fill="#000000" opacity="1.000000" stroke="none" 
	d="
M312.260193,325.821136 
	C319.726227,323.910706 321.835907,324.624664 331.837982,332.206207 
	C333.780670,331.485779 334.721130,329.579865 336.194855,328.290131 
	C341.596924,323.562653 348.795471,322.821442 354.128601,326.497864 
	C358.951538,329.822571 359.855408,335.317902 357.584808,342.609680 
	C356.065765,347.487885 353.428894,350.367523 348.533020,352.185699 
	C338.664062,355.850769 329.548279,361.041260 321.527771,367.997528 
	C319.924896,369.387695 318.160034,370.591156 315.461121,372.650391 
	C315.256104,360.348083 308.268860,351.277435 305.707733,340.714447 
	C304.062988,333.930908 305.907990,329.825012 312.260193,325.821136 
z"/>
<path fill="#000000" opacity="1.000000" stroke="none" 
	d="
M365.332336,689.967224 
	C362.109711,689.158936 362.177948,691.505249 361.668976,693.134155 
	C361.051086,695.111633 361.723206,696.796936 363.303833,698.010376 
	C364.789246,699.150696 366.190216,698.244141 367.423523,697.397278 
	C370.344116,695.391846 372.675995,692.815979 374.557739,689.807251 
	C375.487305,688.320923 376.114075,686.394104 378.428345,686.441589 
	C378.686218,691.965027 370.280243,701.584656 365.117981,701.750183 
	C361.931458,701.852417 360.749054,699.135132 358.656433,697.021912 
	C355.133240,702.669189 353.291626,708.848206 350.827972,714.736450 
	C349.542419,717.808960 348.394989,720.940674 347.055573,723.988708 
	C346.282898,725.747009 345.795380,728.353760 343.286194,727.987732 
	C340.495026,727.580444 340.932587,724.829651 340.626038,722.743958 
	C338.711914,709.721680 340.013458,696.865295 342.896637,683.196411 
	C337.576019,689.630859 332.813934,695.393005 328.047516,701.151428 
	C327.197906,702.177856 326.383026,703.239929 325.462189,704.199219 
	C321.655670,708.164612 319.852692,707.750427 318.060059,702.530212 
	C317.762939,702.632019 317.419067,702.669495 317.176086,702.845886 
	C315.120667,704.338013 313.402374,707.360413 310.375671,705.496094 
	C307.601501,703.787292 307.705841,700.678589 308.264465,697.812195 
	C308.924408,694.426086 309.788788,691.079773 310.289154,687.462708 
	C306.248627,694.339111 297.850403,693.831055 292.323914,698.536255 
	C288.655121,701.659851 288.010437,695.875061 286.390015,693.662231 
	C283.904816,695.067322 283.720276,700.618835 280.064758,698.565857 
	C276.409943,696.513245 279.482941,692.228577 279.316864,687.579346 
	C277.009216,694.083862 275.190430,699.441895 273.188873,704.730652 
	C272.459229,706.658569 271.919098,709.356506 269.079010,708.955627 
	C266.336273,708.568481 266.149048,705.874756 266.100098,703.808960 
	C265.834076,692.579651 268.944611,682.318359 275.709686,673.129028 
	C274.590576,682.959595 268.823792,691.877014 269.821075,703.149170 
	C273.616882,694.166565 275.793976,685.552246 280.707947,678.171570 
	C280.892242,677.894775 281.031799,677.588440 281.211609,677.308350 
	C282.158386,675.834290 282.786041,673.427002 285.124298,674.486267 
	C287.111633,675.386658 286.017212,677.378296 285.608612,678.937988 
	C284.474854,683.265503 283.318390,687.586975 282.789062,692.227722 
	C283.798615,690.692261 284.773865,689.132690 285.829926,687.630005 
	C286.515076,686.655151 287.386993,685.737915 288.722961,686.160889 
	C290.045685,686.579590 290.175232,687.800476 290.290039,689.007385 
	C290.476349,690.966431 289.824677,693.002502 291.407654,696.150635 
	C300.313171,688.468750 307.593750,679.103088 319.699677,673.149048 
	C316.896484,683.616882 310.481598,691.817383 311.554016,702.286499 
	C314.651031,701.598389 316.112335,699.546814 317.639557,697.701782 
	C321.674438,692.827393 325.476776,687.752808 329.654205,683.006592 
	C332.537781,679.730469 335.962433,676.992310 340.759705,676.560608 
	C333.318481,683.632385 325.780243,690.451660 323.018890,700.780396 
	C332.563873,690.824036 341.767944,680.585999 347.637695,667.909973 
	C350.443451,661.850708 353.126495,655.758301 357.299713,650.483093 
	C358.521912,648.938171 359.957611,646.820190 362.170074,648.279358 
	C364.325500,649.700867 363.095947,651.936951 362.159790,653.656250 
	C360.730225,656.281921 359.366364,659.040649 357.438385,661.281494 
	C346.559540,673.925842 344.127197,689.255676 343.360352,705.075623 
	C343.114990,710.137268 342.868347,715.282288 344.158813,721.743408 
	C347.734680,713.210815 350.755829,705.912048 353.851929,698.645264 
	C355.943237,693.736694 358.266205,688.937134 361.377106,684.572998 
	C362.143982,683.497253 362.964050,682.401855 363.968414,681.566528 
	C365.440277,680.342407 367.266266,679.583008 368.995422,680.899109 
	C370.943390,682.381714 370.523407,684.395691 369.571716,686.318604 
	C368.733246,688.012756 367.580841,689.393677 365.332336,689.967224 
z"/>
<path fill="#000000" opacity="1.000000" stroke="none" 
	d="
M233.043076,694.170166 
	C231.672028,703.522217 231.926437,712.502075 232.422501,721.482666 
	C232.507446,723.020325 233.117279,724.467834 234.376953,725.391479 
	C235.986542,726.571655 236.979050,727.865356 234.918457,729.258972 
	C233.035110,730.532593 231.714478,729.134338 230.984177,727.531311 
	C229.450241,724.164062 228.729645,720.573120 228.714767,716.867737 
	C228.688965,710.441589 228.707581,704.015259 228.707581,697.288513 
	C217.739746,704.009277 215.145172,703.127441 212.999832,692.183716 
	C209.080292,695.142578 205.202667,697.773804 204.067413,703.039612 
	C203.477859,705.774292 201.842545,708.238831 199.499405,710.042419 
	C198.396408,710.891479 197.189392,711.636169 195.865601,710.750366 
	C194.324127,709.718933 194.458603,708.099670 195.243790,706.743286 
	C196.490601,704.589355 197.958282,702.559326 199.391846,700.518494 
	C201.950104,696.876648 201.380127,694.731873 197.054596,693.780579 
	C193.023346,692.893921 189.136765,692.391785 185.449905,689.893066 
	C183.104889,688.303711 179.608063,689.354675 178.094543,692.880859 
	C176.980774,695.475769 175.724472,698.016418 174.400589,700.511658 
	C173.536407,702.140564 172.480515,703.875000 170.205261,703.280762 
	C167.975342,702.698486 166.811523,700.832642 166.992249,698.750427 
	C167.478653,693.146484 169.449142,688.036987 173.567307,684.056885 
	C175.095444,682.580017 176.965988,682.199524 178.864761,684.037354 
	C182.751404,687.799194 185.871658,687.508423 189.427658,683.183044 
	C192.073502,679.964661 194.561783,676.600647 198.196945,674.375305 
	C199.369720,673.657471 200.575790,673.239502 202.393982,674.434814 
	C198.770462,679.428040 192.314224,682.169067 190.792953,689.068665 
	C195.267685,690.304199 199.794006,690.853516 203.229904,694.100159 
	C204.272278,695.085144 205.409027,693.885193 206.244644,693.107239 
	C209.890671,689.712952 214.314392,687.187439 217.290726,683.034119 
	C218.719543,681.040344 220.681290,679.639404 223.275009,680.514404 
	C224.849808,681.045654 225.537247,682.575012 225.172684,684.192200 
	C224.564224,686.891113 223.304550,689.744812 220.361359,689.857910 
	C217.745514,689.958496 216.719406,690.764526 216.475677,693.064880 
	C216.279724,694.914368 216.160095,696.932922 218.022476,698.006470 
	C220.182098,699.251343 221.852844,697.597229 223.393585,696.443054 
	C227.818787,693.128052 230.764252,688.869324 231.699905,683.264587 
	C232.246628,679.989685 233.035431,676.728394 234.039246,673.563660 
	C235.190277,669.934875 233.650894,668.481262 230.306870,668.429871 
	C222.520462,668.310303 214.613678,667.477112 207.377563,671.481995 
	C206.232437,672.115784 204.988861,672.482239 204.332962,671.204529 
	C203.331284,669.253296 205.042068,668.450439 206.409912,667.985779 
	C214.384781,665.276855 222.590469,663.751160 230.960236,665.261169 
	C235.050812,665.999146 237.141968,664.838623 238.665039,661.104370 
	C240.293777,657.111023 242.272461,653.215759 245.107269,649.882263 
	C246.309967,648.467957 247.764435,647.014587 249.793610,648.248596 
	C251.464661,649.264954 251.438812,651.121399 250.919281,652.751221 
	C249.516754,657.151001 247.960281,661.501709 246.282898,666.403809 
	C254.834686,668.892212 263.168854,667.896545 271.728241,667.034729 
	C271.750427,670.715210 269.188141,670.795593 267.063934,671.224243 
	C260.760895,672.496155 254.441803,671.729736 248.200699,670.864563 
	C244.963364,670.415710 243.224472,671.310120 241.971893,674.212402 
	C239.139145,680.776123 235.105164,686.799866 233.043076,694.170166 
M242.014969,661.345398 
	C241.559677,662.857727 240.520676,664.268738 241.130386,666.052002 
	C244.670212,662.873108 246.595581,658.523315 246.698181,653.490356 
	C244.784821,655.683533 243.456497,658.142700 242.014969,661.345398 
M175.600220,688.867737 
	C172.093094,690.186951 170.673370,693.339966 171.534454,698.369873 
	C173.932571,695.680420 175.057999,692.680725 175.600220,688.867737 
z"/>
<path fill="#000000" opacity="1.000000" stroke="none" 
	d="
M438.016846,675.240479 
	C436.143860,682.628418 431.752075,688.789124 430.861542,696.212097 
	C430.628113,698.157593 429.810272,700.052002 431.132812,702.250854 
	C433.884552,701.517883 435.336487,699.249756 437.099030,697.373596 
	C442.927124,691.169861 446.651001,683.306030 452.831299,677.395203 
	C454.790222,675.521790 456.615326,673.100220 460.975830,674.011536 
	C456.724274,679.288757 450.572021,682.411560 448.684265,689.121277 
	C453.229828,690.352112 457.829346,690.638123 461.202698,694.052551 
	C462.232697,695.095032 463.410645,694.027649 464.248749,693.244019 
	C467.865234,689.862366 472.534210,687.601562 475.023438,683.002991 
	C475.636261,681.870850 476.537476,680.730957 478.544464,681.554993 
	C478.698181,684.824524 475.075378,687.056519 475.733032,691.014282 
	C479.329620,688.724976 481.295166,685.235535 483.985413,682.489624 
	C486.474518,679.949097 488.433319,676.044861 492.781067,676.933655 
	C497.501068,677.898621 498.205444,682.330322 499.317535,686.137634 
	C500.134766,688.935486 500.721191,691.800659 501.495300,694.984741 
	C505.506317,692.056030 507.423859,687.356384 512.628235,685.589722 
	C512.503784,689.780151 509.866913,691.603821 507.898499,693.483276 
	C503.201385,697.968140 500.950623,703.208679 500.149872,709.675293 
	C499.164612,717.631531 496.324524,725.168579 491.923859,731.988403 
	C490.428162,734.306213 488.537994,736.570618 485.465027,735.412903 
	C481.981628,734.100586 483.143280,730.954224 483.774261,728.502991 
	C486.000885,719.852966 490.490295,712.220215 495.133301,704.715637 
	C499.975098,696.889771 497.153870,689.289734 494.633514,681.760254 
	C493.629242,678.759888 491.281281,679.531189 489.541779,681.395630 
	C486.022980,685.167175 482.650391,689.074707 479.169220,692.881958 
	C476.417419,695.891541 473.585541,697.403198 470.820740,692.601196 
	C466.798157,695.481567 463.356171,698.371338 462.159271,703.295959 
	C461.479126,706.094604 459.724823,708.382751 457.402405,710.157959 
	C456.277710,711.017639 455.031403,711.577271 453.765930,710.574707 
	C452.492065,709.565552 452.665833,708.189819 453.411072,706.969116 
	C454.884521,704.555725 456.478271,702.216003 458.000488,699.831970 
	C458.695190,698.744019 459.744965,697.783081 459.067261,696.234741 
	C457.605591,692.895020 445.820496,691.402405 443.629425,694.428894 
	C441.069763,697.964478 437.957245,700.962708 434.911469,704.030396 
	C433.613037,705.338196 432.056885,706.538574 430.039093,705.798645 
	C427.760315,704.963013 427.447479,702.881714 427.522491,700.834351 
	C427.607330,698.517700 427.839691,696.193542 428.203491,693.903809 
	C428.534607,691.819763 429.127808,689.777405 429.331604,687.534302 
	C425.584595,693.298767 418.363464,694.446472 414.122864,699.559509 
	C412.444977,701.582581 409.600952,702.591919 406.839386,701.058472 
	C403.941132,699.449219 402.641327,696.687744 402.875092,693.516968 
	C403.146027,689.842590 404.350800,686.336182 406.456421,683.266235 
	C407.829498,681.264282 409.692841,679.780640 412.347656,680.438538 
	C414.104736,680.873901 414.558105,682.386719 414.384644,683.990906 
	C414.074310,686.860535 412.651215,688.980103 409.833069,689.961121 
	C408.897919,690.286560 407.975616,689.061096 406.819672,689.986938 
	C406.680969,690.447632 406.365051,691.067383 406.325928,691.704102 
	C406.186157,693.979187 405.292236,696.763428 407.767273,698.077698 
	C410.276886,699.410339 412.035309,697.058533 413.772217,695.606628 
	C416.487610,693.337036 418.441559,690.434570 420.291626,687.449951 
	C422.511230,683.869080 424.867554,680.472595 429.527008,679.713867 
	C431.528503,679.387878 432.150482,677.290100 433.447693,676.048035 
	C434.704742,674.844421 435.786377,672.859497 438.016846,675.240479 
M496.184906,711.716614 
	C496.316040,711.106079 496.447144,710.495605 496.578278,709.885071 
	C492.406616,716.768005 487.934448,723.476624 486.606293,732.851746 
	C492.645721,726.414917 493.888336,719.172852 496.184906,711.716614 
z"/>
<path fill="#000000" opacity="1.000000" stroke="none" 
	d="
M151.068085,704.168640 
	C147.425156,706.893738 143.899490,710.140869 139.576828,707.429077 
	C135.083008,704.609863 135.496521,699.901367 136.656860,695.286072 
	C138.354111,688.535034 140.605835,682.114197 147.035065,678.346008 
	C148.912842,677.245422 151.422348,676.506653 152.737900,679.041931 
	C153.882721,681.248047 153.459503,683.624939 151.073776,685.121765 
	C150.735260,685.334229 150.148621,685.151184 149.830704,685.151184 
	C148.346588,683.581238 151.032547,682.345642 149.874054,680.931763 
	C143.613266,684.156555 137.771683,696.181519 139.401474,702.534729 
	C140.345993,706.216614 142.687042,705.913452 145.055206,704.156494 
	C154.278610,697.313660 161.120499,689.012390 162.756668,677.033203 
	C164.055542,667.523621 167.738647,658.739807 173.100739,650.747009 
	C174.206940,649.098083 175.084869,646.118286 177.788406,647.321289 
	C180.301178,648.439392 179.212051,651.037720 178.658646,653.102783 
	C176.232697,662.155212 172.732010,670.847839 168.282150,679.023621 
	C160.982803,692.434692 163.621979,706.058350 166.270172,719.809875 
	C166.600113,721.523071 169.218185,723.871216 166.110321,724.738464 
	C163.678711,725.416931 163.354187,722.308716 162.863724,720.517578 
	C160.657440,712.460510 159.954834,704.186218 159.851852,694.885559 
	C156.635895,698.316223 153.997467,701.130737 151.068085,704.168640 
M173.326401,657.588135 
	C169.545166,661.706299 168.947739,667.038879 167.599045,672.088745 
	C170.183334,667.622925 172.488724,663.051208 173.326401,657.588135 
z"/>
</svg>